Coordinates
version=1
nRows=10
nColumns=22
inDegrees=yes

Units are S.I. units (second, meters, Newtons, ...)
If the header above contains a line with 'inDegrees', this indicates whether rotational values are in degrees (yes) or radians (no).

endheader
time	pelvis_tilt	pelvis_list	pelvis_rotation	pelvis_tx	pelvis_ty	pelvis_tz	hip_flexion_r	hip_adduction_r	hip_rotation_r	knee_angle_r	ankle_angle_r	subtalar_angle_r	hip_flexion_l	hip_adduction_l	hip_rotation_l	knee_angle_l	ankle_angle_l	subtalar_angle_l	lumbar_extension	lumbar_bending	lumbar_rotation
      2.62000000	      2.08750847	     -5.67543169	      3.92938053	     -0.65383824	      1.06907144	     -0.33790046	     12.50218355	      7.92045031	     -5.90812298	    -16.94948049	      5.56778051	     -3.40880163	      1.09638993	     -4.81088849	      5.21171406	    -49.91959934	     -4.95649439	     17.43941226	     -5.82956791	      4.26830570	     -9.79713000
      2.63000000	      2.21461522	     -5.91850884	      4.03757950	     -0.64454902	      1.06969446	     -0.33696806	     11.74891705	      8.27042521	     -6.01061933	    -16.75715014	      5.93003093	     -3.58060342	      2.49695698	     -5.26583545	      5.10532344	    -52.23903502	     -5.55624750	     17.11661367	     -5.97156178	      4.52113100	     -9.40160755
      2.64000000	      2.37972059	     -6.15555930	      4.09646612	     -0.63538928	      1.07033286	     -0.33593398	     10.95222371	      8.63233623	     -6.04178071	    -16.54839193	      6.24626691	     -3.68358377	      3.86897757	     -5.73146996	      4.95472724	    -54.39936680	     -5.85862738	     16.37329463	     -6.17181600	      4.74804310	     -8.95048903
      2.65000000	      2.56842037	     -6.38476943	      4.11338850	     -0.62632142	      1.07099663	     -0.33481918	     10.11684540	      9.00194877	     -6.00593854	    -16.31087907	      6.54371853	     -3.75353852	      5.20877375	     -6.19419494	      4.79144083	    -56.36651616	     -5.86121143	     15.32052469	     -6.40557734	      4.94682639	     -8.44702627
      2.66000000	      2.76574620	     -6.58955779	      4.09412738	     -0.61733978	      1.07168955	     -0.33364636	      9.25677162	      9.35750749	     -5.90596949	    -16.04597727	      6.83543545	     -3.81277447	      6.51715723	     -6.62942822	      4.62558993	    -58.11376304	     -5.59676707	     14.03152535	     -6.65349969	      5.10055078	     -7.91388134
      2.67000000	      2.96613896	     -6.74671694	      4.04529049	     -0.60844454	      1.07241931	     -0.33245446	      8.38294528	      9.66771940	     -5.76085924	    -15.77017430	      7.12928807	     -3.86391637	      7.78411285	     -7.00030906	      4.46944064	    -59.61748237	     -5.09343999	     12.58841882	     -6.91189558	      5.18725659	     -7.36763044
      2.68000000	      3.16113984	     -6.83690845	      3.97845809	     -0.59963935	      1.07319431	     -0.33129482	      7.50693060	      9.90408534	     -5.60017775	    -15.48760627	      7.41737662	     -3.90416023	      9.00636948	     -7.27407191	      4.33365736	    -60.85826493	     -4.41778902	     11.05120174	     -7.16980331	      5.18956786	     -6.82206407
      2.69000000	      3.34152138	     -6.85350563	      3.89828380	     -0.59088447	      1.07401031	     -0.33018383	      6.63347849	     10.05483305	     -5.45701562	    -15.19206211	      7.70975135	     -3.92802793	     10.18141860	     -7.44180289	      4.21155411	    -61.82157447	     -3.61586954	      9.53460464	     -7.41302729	      5.10214996	     -6.28625169
      2.70000000	      3.49755771	     -6.83472844	      3.80247027	     -0.58220960	      1.07483471	     -0.32913187	      5.77181557	     10.16506067	     -5.25487401	    -14.87203542	      7.97307746	     -3.93286067	     11.32655209	     -7.54184733	      4.10481543	    -62.52232009	     -2.73503113	      8.14311047	     -7.63359992	      4.97648893	     -5.76042864
      2.71000000	      3.63435912	     -6.72658946	      3.70451409	     -0.57359113	      1.07567755	     -0.32819433	      4.93756185	     10.16331098	     -5.10411868	    -14.57459356	      8.25891865	     -3.92688870	     12.41538726	     -7.50837385	      4.01091114	    -62.93776874	     -1.79081476	      6.82910330	     -7.83843266	      4.75324088	     -5.26033540
